<svg xmlns="http://www.w3.org/2000/svg" version="1.1" width="1024" height="576">
<rect x="0" y="0" width="1024" height="576" fill="#482d1c" />
<g transform="scale(4.000000) translate(0.5 0.5)">
<ellipse fill="#ef2d3c" fill-opacity="0.501961" cx="99" cy="52" rx="64" ry="49" />
<ellipse fill="#25c089" fill-opacity="0.501961" cx="179" cy="143" rx="37" ry="70" />
<ellipse fill="#a2ebe3" fill-opacity="0.501961" cx="62" cy="63" rx="19" ry="26" />
<ellipse fill="#000000" fill-opacity="0.501961" cx="22" cy="127" rx="83" ry="47" />
<ellipse fill="#001300" fill-opacity="0.501961" cx="233" cy="57" rx="39" ry="89" />
<ellipse fill="#000700" fill-opacity="0.501961" cx="19" cy="63" rx="21" ry="255" />
<ellipse fill="#6a0508" fill-opacity="0.501961" cx="107" cy="78" rx="43" ry="28" />
<ellipse fill="#67be0e" fill-opacity="0.501961" cx="173" cy="80" rx="28" ry="16" />
<ellipse fill="#fff1f7" fill-opacity="0.501961" cx="69" cy="51" rx="20" ry="10" />
<ellipse fill="#a75052" fill-opacity="0.501961" cx="146" cy="143" rx="26" ry="38" />
<ellipse fill="#d50005" fill-opacity="0.501961" cx="97" cy="28" rx="36" ry="22" />
<ellipse fill="#006bc9" fill-opacity="0.501961" cx="204" cy="143" rx="20" ry="22" />
<ellipse fill="#9f101c" fill-opacity="0.501961" cx="121" cy="103" rx="34" ry="15" />
<ellipse fill="#ca3026" fill-opacity="0.501961" cx="171" cy="56" rx="15" ry="17" />
<ellipse fill="#00a7a1" fill-opacity="0.501961" cx="173" cy="104" rx="18" ry="14" />
<ellipse fill="#001311" fill-opacity="0.501961" cx="72" cy="69" rx="11" ry="10" />
<ellipse fill="#91a533" fill-opacity="0.501961" cx="155" cy="0" rx="17" ry="22" />
<ellipse fill="#8e0008" fill-opacity="0.501961" cx="124" cy="45" rx="38" ry="36" />
<ellipse fill="#001700" fill-opacity="0.501961" cx="190" cy="23" rx="19" ry="28" />
<ellipse fill="#ff3039" fill-opacity="0.501961" cx="72" cy="30" rx="27" ry="12" />
<ellipse fill="#000300" fill-opacity="0.501961" cx="232" cy="88" rx="26" ry="37" />
<ellipse fill="#000c00" fill-opacity="0.501961" cx="86" cy="143" rx="42" ry="27" />
<ellipse fill="#000e00" fill-opacity="0.501961" cx="38" cy="0" rx="26" ry="24" />
<ellipse fill="#00b6a5" fill-opacity="0.501961" cx="155" cy="88" rx="6" ry="10" />
<ellipse fill="#d3473e" fill-opacity="0.501961" cx="95" cy="85" rx="13" ry="14" />
<ellipse fill="#003c58" fill-opacity="0.501961" cx="192" cy="118" rx="26" ry="9" />
<ellipse fill="#c60d11" fill-opacity="0.501961" cx="41" cy="54" rx="9" ry="15" />
<ellipse fill="#58d304" fill-opacity="0.501961" cx="195" cy="95" rx="10" ry="10" />
<ellipse fill="#e7e6e4" fill-opacity="0.501961" cx="60" cy="56" rx="16" ry="7" />
<ellipse fill="#569708" fill-opacity="0.501961" cx="156" cy="71" rx="13" ry="12" />
<ellipse fill="#00c4a4" fill-opacity="0.501961" cx="182" cy="106" rx="12" ry="12" />
<ellipse fill="#750008" fill-opacity="0.501961" cx="132" cy="100" rx="20" ry="24" />
<ellipse fill="#763727" fill-opacity="0.501961" cx="174" cy="139" rx="11" ry="21" />
<ellipse fill="#071300" fill-opacity="0.501961" cx="64" cy="118" rx="30" ry="30" />
<ellipse fill="#934f00" fill-opacity="0.501961" cx="185" cy="72" rx="11" ry="18" />
<ellipse fill="#bfd9bc" fill-opacity="0.501961" cx="49" cy="73" rx="9" ry="7" />
<ellipse fill="#a4cfb0" fill-opacity="0.501961" cx="65" cy="85" rx="10" ry="4" />
<ellipse fill="#c49660" fill-opacity="0.501961" cx="157" cy="126" rx="10" ry="10" />
<ellipse fill="#15331d" fill-opacity="0.501961" cx="76" cy="81" rx="6" ry="23" />
<ellipse fill="#0c1600" fill-opacity="0.501961" cx="6" cy="90" rx="25" ry="218" />
<ellipse fill="#d00000" fill-opacity="0.501961" cx="46" cy="41" rx="8" ry="7" />
<ellipse fill="#a18781" fill-opacity="0.501961" cx="106" cy="94" rx="4" ry="10" />
<ellipse fill="#40656e" fill-opacity="0.501961" cx="136" cy="143" rx="12" ry="17" />
<ellipse fill="#a52527" fill-opacity="0.501961" cx="154" cy="46" rx="20" ry="19" />
<ellipse fill="#451118" fill-opacity="0.501961" cx="146" cy="108" rx="12" ry="8" />
<ellipse fill="#a33432" fill-opacity="0.501961" cx="112" cy="106" rx="22" ry="9" />
<ellipse fill="#2c3004" fill-opacity="0.501961" cx="230" cy="19" rx="68" ry="28" />
<ellipse fill="#e03929" fill-opacity="0.501961" cx="87" cy="75" rx="8" ry="10" />
<ellipse fill="#0084ac" fill-opacity="0.501961" cx="149" cy="79" rx="3" ry="8" />
<ellipse fill="#90e5f4" fill-opacity="0.501961" cx="82" cy="56" rx="6" ry="4" />
<ellipse fill="#091f30" fill-opacity="0.501961" cx="169" cy="109" rx="4" ry="12" />
<ellipse fill="#05c54a" fill-opacity="0.501961" cx="203" cy="105" rx="6" ry="7" />
<ellipse fill="#efc6c2" fill-opacity="0.501961" cx="66" cy="47" rx="7" ry="12" />
<ellipse fill="#3a5248" fill-opacity="0.501961" cx="108" cy="114" rx="12" ry="6" />
<ellipse fill="#84c600" fill-opacity="0.501961" cx="185" cy="85" rx="6" ry="10" />
<ellipse fill="#000a14" fill-opacity="0.501961" cx="80" cy="63" rx="7" ry="5" />
<ellipse fill="#0068cc" fill-opacity="0.501961" cx="217" cy="143" rx="11" ry="7" />
<ellipse fill="#111904" fill-opacity="0.501961" cx="249" cy="130" rx="31" ry="15" />
<ellipse fill="#f20c2f" fill-opacity="0.501961" cx="89" cy="40" rx="9" ry="12" />
<ellipse fill="#7e000a" fill-opacity="0.501961" cx="117" cy="56" rx="18" ry="33" />
<ellipse fill="#008586" fill-opacity="0.501961" cx="192" cy="132" rx="8" ry="13" />
<ellipse fill="#00a594" fill-opacity="0.501961" cx="160" cy="96" rx="7" ry="9" />
<ellipse fill="#161902" fill-opacity="0.501961" cx="23" cy="13" rx="26" ry="28" />
<ellipse fill="#6b020f" fill-opacity="0.501961" cx="40" cy="65" rx="14" ry="3" />
<ellipse fill="#2f4548" fill-opacity="0.501961" cx="142" cy="127" rx="4" ry="19" />
<ellipse fill="#121401" fill-opacity="0.501961" cx="195" cy="30" rx="16" ry="25" />
<ellipse fill="#841701" fill-opacity="0.501961" cx="106" cy="10" rx="25" ry="6" />
<ellipse fill="#000c1a" fill-opacity="0.501961" cx="200" cy="116" rx="8" ry="6" />
<ellipse fill="#d60000" fill-opacity="0.501961" cx="53" cy="36" rx="5" ry="7" />
<ellipse fill="#843117" fill-opacity="0.501961" cx="165" cy="61" rx="28" ry="8" />
<ellipse fill="#f56255" fill-opacity="0.501961" cx="82" cy="28" rx="7" ry="8" />
<ellipse fill="#bebb9a" fill-opacity="0.501961" cx="56" cy="79" rx="10" ry="7" />
<ellipse fill="#00558e" fill-opacity="0.501961" cx="190" cy="121" rx="10" ry="8" />
<ellipse fill="#cf3c42" fill-opacity="0.501961" cx="130" cy="122" rx="5" ry="8" />
<ellipse fill="#4d0000" fill-opacity="0.501961" cx="128" cy="89" rx="14" ry="8" />
<ellipse fill="#bf0000" fill-opacity="0.501961" cx="98" cy="101" rx="8" ry="7" />
<ellipse fill="#6e7425" fill-opacity="0.501961" cx="84" cy="2" rx="15" ry="4" />
<ellipse fill="#90724c" fill-opacity="0.501961" cx="159" cy="143" rx="16" ry="14" />
<ellipse fill="#00ac53" fill-opacity="0.501961" cx="209" cy="112" rx="4" ry="6" />
<ellipse fill="#0d1000" fill-opacity="0.501961" cx="12" cy="93" rx="36" ry="31" />
<ellipse fill="#273d00" fill-opacity="0.501961" cx="125" cy="0" rx="19" ry="7" />
<ellipse fill="#645654" fill-opacity="0.501961" cx="123" cy="124" rx="7" ry="7" />
<ellipse fill="#472826" fill-opacity="0.501961" cx="179" cy="143" rx="8" ry="10" />
<ellipse fill="#0b1202" fill-opacity="0.501961" cx="222" cy="72" rx="23" ry="34" />
<ellipse fill="#70ae00" fill-opacity="0.501961" cx="159" cy="75" rx="9" ry="8" />
<ellipse fill="#005fc7" fill-opacity="0.501961" cx="210" cy="135" rx="8" ry="6" />
<ellipse fill="#96a299" fill-opacity="0.501961" cx="47" cy="69" rx="10" ry="3" />
<ellipse fill="#334755" fill-opacity="0.501961" cx="62" cy="68" rx="10" ry="4" />
<ellipse fill="#335b4f" fill-opacity="0.501961" cx="54" cy="48" rx="3" ry="2" />
<ellipse fill="#e58854" fill-opacity="0.501961" cx="203" cy="141" rx="2" ry="3" />
<ellipse fill="#d1e0e0" fill-opacity="0.501961" cx="77" cy="54" rx="7" ry="6" />
<ellipse fill="#b40007" fill-opacity="0.501961" cx="124" cy="111" rx="6" ry="9" />
<ellipse fill="#ba2630" fill-opacity="0.501961" cx="156" cy="46" rx="26" ry="6" />
<ellipse fill="#141804" fill-opacity="0.501961" cx="41" cy="5" rx="28" ry="12" />
<ellipse fill="#2d2e0b" fill-opacity="0.501961" cx="239" cy="26" rx="44" ry="31" />
<ellipse fill="#d4c7c7" fill-opacity="0.501961" cx="56" cy="57" rx="12" ry="8" />
<ellipse fill="#58070a" fill-opacity="0.501961" cx="153" cy="34" rx="7" ry="5" />
<ellipse fill="#900406" fill-opacity="0.501961" cx="37" cy="57" rx="7" ry="12" />
<ellipse fill="#488e00" fill-opacity="0.501961" cx="174" cy="83" rx="3" ry="12" />
<ellipse fill="#68121a" fill-opacity="0.501961" cx="97" cy="66" rx="8" ry="13" />
<ellipse fill="#636706" fill-opacity="0.501961" cx="146" cy="64" rx="6" ry="7" />
<ellipse fill="#1a1f19" fill-opacity="0.501961" cx="71" cy="74" rx="5" ry="9" />
<ellipse fill="#b91414" fill-opacity="0.501961" cx="93" cy="94" rx="8" ry="12" />
<ellipse fill="#00ab75" fill-opacity="0.501961" cx="162" cy="91" rx="11" ry="6" />
<ellipse fill="#952e2b" fill-opacity="0.501961" cx="177" cy="59" rx="13" ry="13" />
<ellipse fill="#b90010" fill-opacity="0.501961" cx="98" cy="33" rx="7" ry="22" />
<ellipse fill="#004b3d" fill-opacity="0.501961" cx="211" cy="124" rx="6" ry="5" />
<ellipse fill="#1b1e02" fill-opacity="0.501961" cx="20" cy="36" rx="17" ry="24" />
<ellipse fill="#776860" fill-opacity="0.501961" cx="132" cy="106" rx="4" ry="4" />
<ellipse fill="#720000" fill-opacity="0.501961" cx="145" cy="100" rx="8" ry="10" />
<ellipse fill="#8a716a" fill-opacity="0.501961" cx="110" cy="103" rx="2" ry="10" />
<ellipse fill="#b80000" fill-opacity="0.501961" cx="46" cy="44" rx="5" ry="7" />
<ellipse fill="#7bc300" fill-opacity="0.501961" cx="194" cy="95" rx="4" ry="7" />
<ellipse fill="#02d58f" fill-opacity="0.501961" cx="189" cy="104" rx="7" ry="7" />
<ellipse fill="#464740" fill-opacity="0.501961" cx="71" cy="75" rx="9" ry="3" />
<ellipse fill="#640700" fill-opacity="0.501961" cx="171" cy="117" rx="2" ry="5" />
<ellipse fill="#d4dfde" fill-opacity="0.501961" cx="60" cy="52" rx="4" ry="13" />
<ellipse fill="#6a6f26" fill-opacity="0.501961" cx="156" cy="0" rx="22" ry="20" />
<ellipse fill="#0050aa" fill-opacity="0.501961" cx="201" cy="128" rx="9" ry="5" />
<ellipse fill="#25430d" fill-opacity="0.501961" cx="199" cy="79" rx="5" ry="12" />
<ellipse fill="#0f5d44" fill-opacity="0.501961" cx="82" cy="96" rx="3" ry="5" />
<ellipse fill="#98351e" fill-opacity="0.501961" cx="105" cy="6" rx="15" ry="4" />
<ellipse fill="#950006" fill-opacity="0.501961" cx="136" cy="83" rx="12" ry="8" />
<ellipse fill="#070a01" fill-opacity="0.501961" cx="224" cy="101" rx="14" ry="24" />
<ellipse fill="#304a51" fill-opacity="0.501961" cx="152" cy="113" rx="11" ry="3" />
<ellipse fill="#00946d" fill-opacity="0.501961" cx="194" cy="143" rx="8" ry="15" />
<ellipse fill="#a77682" fill-opacity="0.501961" cx="131" cy="130" rx="4" ry="7" />
<ellipse fill="#87746f" fill-opacity="0.501961" cx="103" cy="87" rx="3" ry="6" />
<ellipse fill="#5da803" fill-opacity="0.501961" cx="174" cy="83" rx="18" ry="6" />
<ellipse fill="#670000" fill-opacity="0.501961" cx="152" cy="107" rx="5" ry="4" />
<ellipse fill="#b01b25" fill-opacity="0.501961" cx="109" cy="65" rx="9" ry="5" />
<ellipse fill="#d10414" fill-opacity="0.501961" cx="57" cy="31" rx="8" ry="9" />
<ellipse fill="#ca2f28" fill-opacity="0.501961" cx="88" cy="80" rx="6" ry="18" />
<ellipse fill="#264437" fill-opacity="0.501961" cx="92" cy="108" rx="5" ry="5" />
<ellipse fill="#101202" fill-opacity="0.501961" cx="182" cy="29" rx="13" ry="12" />
<ellipse fill="#121202" fill-opacity="0.501961" cx="41" cy="118" rx="52" ry="33" />
<ellipse fill="#b5161c" fill-opacity="0.501961" cx="136" cy="23" rx="16" ry="7" />
<ellipse fill="#9d9f91" fill-opacity="0.501961" cx="64" cy="84" rx="12" ry="4" />
<ellipse fill="#7b180f" fill-opacity="0.501961" cx="190" cy="69" rx="4" ry="9" />
<ellipse fill="#a44936" fill-opacity="0.501961" cx="90" cy="79" rx="16" ry="4" />
<ellipse fill="#514e0e" fill-opacity="0.501961" cx="255" cy="6" rx="10" ry="9" />
<ellipse fill="#930003" fill-opacity="0.501961" cx="136" cy="120" rx="4" ry="7" />
<ellipse fill="#825144" fill-opacity="0.501961" cx="136" cy="110" rx="5" ry="4" />
<ellipse fill="#161804" fill-opacity="0.501961" cx="221" cy="52" rx="32" ry="14" />
<ellipse fill="#c30004" fill-opacity="0.501961" cx="85" cy="14" rx="14" ry="7" />
<ellipse fill="#00926e" fill-opacity="0.501961" cx="171" cy="91" rx="2" ry="17" />
<ellipse fill="#0a0000" fill-opacity="0.501961" cx="205" cy="118" rx="3" ry="4" />
<ellipse fill="#c2beac" fill-opacity="0.501961" cx="47" cy="71" rx="8" ry="4" />
<ellipse fill="#221f06" fill-opacity="0.501961" cx="71" cy="101" rx="12" ry="14" />
<ellipse fill="#363935" fill-opacity="0.501961" cx="118" cy="121" rx="5" ry="7" />
<ellipse fill="#6ca300" fill-opacity="0.501961" cx="192" cy="89" rx="2" ry="16" />
<ellipse fill="#edaeac" fill-opacity="0.501961" cx="70" cy="47" rx="8" ry="6" />
<ellipse fill="#000000" fill-opacity="0.501961" cx="196" cy="112" rx="2" ry="5" />
<ellipse fill="#ccd2cd" fill-opacity="0.501961" cx="58" cy="56" rx="2" ry="14" />
<ellipse fill="#8c544b" fill-opacity="0.501961" cx="170" cy="41" rx="4" ry="6" />
<ellipse fill="#1a1c08" fill-opacity="0.501961" cx="255" cy="125" rx="38" ry="21" />
<ellipse fill="#68b700" fill-opacity="0.501961" cx="205" cy="102" rx="2" ry="5" />
<ellipse fill="#d92320" fill-opacity="0.501961" cx="72" cy="19" rx="18" ry="6" />
<ellipse fill="#15161b" fill-opacity="0.501961" cx="75" cy="67" rx="8" ry="7" />
<ellipse fill="#006f97" fill-opacity="0.501961" cx="174" cy="106" rx="4" ry="8" />
<ellipse fill="#080b00" fill-opacity="0.501961" cx="103" cy="131" rx="14" ry="10" />
<ellipse fill="#009392" fill-opacity="0.501961" cx="151" cy="84" rx="3" ry="7" />
<ellipse fill="#00a977" fill-opacity="0.501961" cx="213" cy="121" rx="2" ry="5" />
<ellipse fill="#51010b" fill-opacity="0.501961" cx="100" cy="59" rx="12" ry="4" />
<ellipse fill="#6d7124" fill-opacity="0.501961" cx="160" cy="22" rx="5" ry="4" />
<ellipse fill="#ae0006" fill-opacity="0.501961" cx="119" cy="100" rx="6" ry="6" />
<ellipse fill="#171706" fill-opacity="0.501961" cx="26" cy="16" rx="25" ry="16" />
<ellipse fill="#008053" fill-opacity="0.501961" cx="201" cy="104" rx="3" ry="8" />
<ellipse fill="#006ba5" fill-opacity="0.501961" cx="182" cy="117" rx="4" ry="5" />
<ellipse fill="#dbd4d7" fill-opacity="0.501961" cx="60" cy="43" rx="6" ry="3" />
<ellipse fill="#9b9300" fill-opacity="0.501961" cx="182" cy="129" rx="2" ry="4" />
<ellipse fill="#00aa8c" fill-opacity="0.501961" cx="164" cy="96" rx="2" ry="16" />
<ellipse fill="#6f7902" fill-opacity="0.501961" cx="161" cy="71" rx="16" ry="4" />
<ellipse fill="#264844" fill-opacity="0.501961" cx="79" cy="84" rx="6" ry="3" />
<ellipse fill="#817b34" fill-opacity="0.501961" cx="151" cy="9" rx="8" ry="11" />
<ellipse fill="#00887f" fill-opacity="0.501961" cx="164" cy="108" rx="3" ry="11" />
<ellipse fill="#434608" fill-opacity="0.501961" cx="175" cy="6" rx="7" ry="9" />
<ellipse fill="#3f0505" fill-opacity="0.501961" cx="133" cy="97" rx="6" ry="6" />
<ellipse fill="#38390e" fill-opacity="0.501961" cx="222" cy="17" rx="9" ry="18" />
<ellipse fill="#00bd86" fill-opacity="0.501961" cx="188" cy="111" rx="6" ry="5" />
<ellipse fill="#ad121f" fill-opacity="0.501961" cx="141" cy="75" rx="5" ry="8" />
<ellipse fill="#5a6b64" fill-opacity="0.501961" cx="124" cy="129" rx="4" ry="4" />
<ellipse fill="#ef302c" fill-opacity="0.501961" cx="75" cy="36" rx="7" ry="7" />
<ellipse fill="#3c3938" fill-opacity="0.501961" cx="174" cy="126" rx="5" ry="11" />
<ellipse fill="#1bc376" fill-opacity="0.501961" cx="179" cy="99" rx="4" ry="9" />
<ellipse fill="#7d6849" fill-opacity="0.501961" cx="164" cy="143" rx="12" ry="16" />
<ellipse fill="#920016" fill-opacity="0.501961" cx="137" cy="36" rx="14" ry="8" />
<ellipse fill="#b60b08" fill-opacity="0.501961" cx="95" cy="88" rx="4" ry="11" />
<ellipse fill="#ee5752" fill-opacity="0.501961" cx="80" cy="29" rx="9" ry="4" />
<ellipse fill="#67ba00" fill-opacity="0.501961" cx="197" cy="101" rx="2" ry="8" />
<ellipse fill="#0b0000" fill-opacity="0.501961" cx="202" cy="116" rx="4" ry="3" />
<ellipse fill="#530000" fill-opacity="0.501961" cx="121" cy="87" rx="11" ry="5" />
<ellipse fill="#b80d0e" fill-opacity="0.501961" cx="105" cy="106" rx="4" ry="5" />
<ellipse fill="#3d4552" fill-opacity="0.501961" cx="123" cy="143" rx="6" ry="5" />
<ellipse fill="#d29999" fill-opacity="0.501961" cx="49" cy="57" rx="5" ry="7" />
<ellipse fill="#030904" fill-opacity="0.501961" cx="210" cy="124" rx="3" ry="3" />
<ellipse fill="#333600" fill-opacity="0.501961" cx="132" cy="0" rx="8" ry="12" />
<ellipse fill="#262005" fill-opacity="0.501961" cx="72" cy="79" rx="4" ry="4" />
<ellipse fill="#22735d" fill-opacity="0.501961" cx="86" cy="101" rx="2" ry="3" />
<ellipse fill="#9a000c" fill-opacity="0.501961" cx="130" cy="61" rx="7" ry="18" />
<ellipse fill="#af8c63" fill-opacity="0.501961" cx="155" cy="121" rx="7" ry="7" />
<ellipse fill="#960215" fill-opacity="0.501961" cx="96" cy="52" rx="10" ry="5" />
<ellipse fill="#768f00" fill-opacity="0.501961" cx="183" cy="82" rx="12" ry="6" />
<ellipse fill="#080a01" fill-opacity="0.501961" cx="39" cy="141" rx="14" ry="44" />
<ellipse fill="#a13a32" fill-opacity="0.501961" cx="174" cy="54" rx="6" ry="14" />
<ellipse fill="#024380" fill-opacity="0.501961" cx="196" cy="122" rx="9" ry="4" />
<ellipse fill="#6a0003" fill-opacity="0.501961" cx="40" cy="65" rx="9" ry="2" />
<ellipse fill="#001016" fill-opacity="0.501961" cx="81" cy="61" rx="6" ry="2" />
<ellipse fill="#181a03" fill-opacity="0.501961" cx="236" cy="0" rx="9" ry="16" />
<ellipse fill="#c5442a" fill-opacity="0.501961" cx="85" cy="86" rx="5" ry="3" />
<ellipse fill="#ea3e28" fill-opacity="0.501961" cx="84" cy="75" rx="4" ry="6" />
<ellipse fill="#a75656" fill-opacity="0.501961" cx="166" cy="36" rx="3" ry="3" />
<ellipse fill="#9e1216" fill-opacity="0.501961" cx="127" cy="113" rx="7" ry="9" />
<ellipse fill="#863a3b" fill-opacity="0.501961" cx="117" cy="60" rx="4" ry="3" />
<ellipse fill="#ff8f5c" fill-opacity="0.501961" cx="205" cy="143" rx="1" ry="2" />
<ellipse fill="#c31324" fill-opacity="0.501961" cx="142" cy="46" rx="8" ry="8" />
<ellipse fill="#6b4841" fill-opacity="0.501961" cx="113" cy="110" rx="4" ry="9" />
<ellipse fill="#ddd5d4" fill-opacity="0.501961" cx="60" cy="58" rx="9" ry="6" />
<ellipse fill="#20260a" fill-opacity="0.501961" cx="255" cy="129" rx="13" ry="33" />
<ellipse fill="#2e3b41" fill-opacity="0.501961" cx="139" cy="133" rx="4" ry="8" />
<ellipse fill="#3e6e0e" fill-opacity="0.501961" cx="195" cy="75" rx="2" ry="13" />
<ellipse fill="#bdb6a0" fill-opacity="0.501961" cx="52" cy="77" rx="9" ry="5" />
<ellipse fill="#005043" fill-opacity="0.501961" cx="112" cy="122" rx="3" ry="3" />
<ellipse fill="#d2d7d7" fill-opacity="0.501961" cx="77" cy="52" rx="7" ry="5" />
<ellipse fill="#6ea800" fill-opacity="0.501961" cx="161" cy="77" rx="3" ry="12" />
<ellipse fill="#0f1103" fill-opacity="0.501961" cx="7" cy="85" rx="32" ry="30" />
<ellipse fill="#00b29e" fill-opacity="0.501961" cx="191" cy="139" rx="4" ry="4" />
<ellipse fill="#009584" fill-opacity="0.501961" cx="155" cy="89" rx="5" ry="6" />
<ellipse fill="#c50400" fill-opacity="0.501961" cx="51" cy="36" rx="4" ry="8" />
<ellipse fill="#9a0001" fill-opacity="0.501961" cx="112" cy="27" rx="11" ry="12" />
<ellipse fill="#031b1c" fill-opacity="0.501961" cx="189" cy="120" rx="2" ry="3" />
<ellipse fill="#0079d6" fill-opacity="0.501961" cx="201" cy="130" rx="3" ry="4" />
<ellipse fill="#cec3bc" fill-opacity="0.501961" cx="52" cy="54" rx="2" ry="10" />
<ellipse fill="#201d01" fill-opacity="0.501961" cx="95" cy="142" rx="20" ry="7" />
<ellipse fill="#00092e" fill-opacity="0.501961" cx="55" cy="48" rx="1" ry="1" />
<ellipse fill="#ad0201" fill-opacity="0.501961" cx="42" cy="47" rx="6" ry="7" />
<ellipse fill="#be0513" fill-opacity="0.501961" cx="91" cy="70" rx="4" ry="5" />
<ellipse fill="#198395" fill-opacity="0.501961" cx="147" cy="76" rx="3" ry="2" />
<ellipse fill="#a8361e" fill-opacity="0.501961" cx="124" cy="18" rx="5" ry="4" />
<ellipse fill="#0095c7" fill-opacity="0.501961" cx="210" cy="143" rx="4" ry="7" />
<ellipse fill="#009d5b" fill-opacity="0.501961" cx="211" cy="117" rx="2" ry="6" />
<ellipse fill="#45505b" fill-opacity="0.501961" cx="64" cy="69" rx="4" ry="7" />
<ellipse fill="#191117" fill-opacity="0.501961" cx="179" cy="138" rx="3" ry="4" />
<ellipse fill="#006678" fill-opacity="0.501961" cx="215" cy="131" rx="2" ry="9" />
<ellipse fill="#9f7272" fill-opacity="0.501961" cx="107" cy="92" rx="2" ry="10" />
<ellipse fill="#630001" fill-opacity="0.501961" cx="147" cy="105" rx="9" ry="6" />
<ellipse fill="#c5363a" fill-opacity="0.501961" cx="59" cy="22" rx="8" ry="6" />
<ellipse fill="#f83640" fill-opacity="0.501961" cx="87" cy="47" rx="2" ry="5" />
<ellipse fill="#191905" fill-opacity="0.501961" cx="25" cy="17" rx="21" ry="26" />
<ellipse fill="#009465" fill-opacity="0.501961" cx="158" cy="94" rx="2" ry="17" />
<ellipse fill="#86b902" fill-opacity="0.501961" cx="187" cy="90" rx="3" ry="7" />
<ellipse fill="#84abbc" fill-opacity="0.501961" cx="84" cy="57" rx="5" ry="2" />
<ellipse fill="#363313" fill-opacity="0.501961" cx="255" cy="39" rx="13" ry="14" />
<ellipse fill="#0a0600" fill-opacity="0.501961" cx="88" cy="124" rx="13" ry="13" />
<ellipse fill="#832e12" fill-opacity="0.501961" cx="180" cy="66" rx="16" ry="5" />
<ellipse fill="#156c20" fill-opacity="0.501961" cx="199" cy="87" rx="2" ry="7" />
<ellipse fill="#774932" fill-opacity="0.501961" cx="186" cy="143" rx="2" ry="3" />
<ellipse fill="#722709" fill-opacity="0.501961" cx="153" cy="61" rx="9" ry="5" />
<ellipse fill="#e03231" fill-opacity="0.501961" cx="130" cy="127" rx="2" ry="3" />
<ellipse fill="#d30802" fill-opacity="0.501961" cx="73" cy="19" rx="5" ry="6" />
<ellipse fill="#625651" fill-opacity="0.501961" cx="128" cy="102" rx="2" ry="3" />
<ellipse fill="#1a1a09" fill-opacity="0.501961" cx="209" cy="76" rx="9" ry="14" />
<ellipse fill="#635b44" fill-opacity="0.501961" cx="174" cy="127" rx="11" ry="3" />
<ellipse fill="#93202b" fill-opacity="0.501961" cx="126" cy="47" rx="4" ry="8" />
<ellipse fill="#3e130e" fill-opacity="0.501961" cx="124" cy="124" rx="2" ry="3" />
<ellipse fill="#8b3840" fill-opacity="0.501961" cx="102" cy="78" rx="12" ry="2" />
<ellipse fill="#0073c8" fill-opacity="0.501961" cx="197" cy="126" rx="3" ry="4" />
<ellipse fill="#3a5013" fill-opacity="0.501961" cx="71" cy="0" rx="6" ry="8" />
<ellipse fill="#ad5860" fill-opacity="0.501961" cx="145" cy="78" rx="1" ry="5" />
<ellipse fill="#a20e16" fill-opacity="0.501961" cx="155" cy="51" rx="13" ry="4" />
<ellipse fill="#191605" fill-opacity="0.501961" cx="199" cy="10" rx="10" ry="12" />
<ellipse fill="#060c03" fill-opacity="0.501961" cx="225" cy="95" rx="20" ry="16" />
<ellipse fill="#e3c0be" fill-opacity="0.501961" cx="65" cy="46" rx="4" ry="9" />
<ellipse fill="#1e2206" fill-opacity="0.501961" cx="0" cy="140" rx="15" ry="13" />
<ellipse fill="#cb3730" fill-opacity="0.501961" cx="68" cy="16" rx="4" ry="8" />
<ellipse fill="#111403" fill-opacity="0.501961" cx="33" cy="94" rx="22" ry="16" />
<ellipse fill="#00c5a0" fill-opacity="0.501961" cx="194" cy="102" rx="1" ry="6" />
<ellipse fill="#141106" fill-opacity="0.501961" cx="231" cy="117" rx="17" ry="13" />
<ellipse fill="#aa0a0a" fill-opacity="0.501961" cx="91" cy="9" rx="8" ry="6" />
<ellipse fill="#00583a" fill-opacity="0.501961" cx="215" cy="127" rx="3" ry="4" />
<ellipse fill="#d90817" fill-opacity="0.501961" cx="63" cy="27" rx="10" ry="5" />
<ellipse fill="#009a5b" fill-opacity="0.501961" cx="204" cy="109" rx="6" ry="4" />
<ellipse fill="#3d4614" fill-opacity="0.501961" cx="166" cy="20" rx="4" ry="13" />
<ellipse fill="#63b307" fill-opacity="0.501961" cx="167" cy="86" rx="2" ry="7" />
<ellipse fill="#64712b" fill-opacity="0.501961" cx="79" cy="77" rx="2" ry="5" />
<ellipse fill="#91010c" fill-opacity="0.501961" cx="146" cy="92" rx="4" ry="7" />
<ellipse fill="#04ba80" fill-opacity="0.501961" cx="170" cy="89" rx="2" ry="5" />
<ellipse fill="#1a1c05" fill-opacity="0.501961" cx="180" cy="28" rx="15" ry="10" />
<ellipse fill="#935856" fill-opacity="0.501961" cx="162" cy="33" rx="4" ry="2" />
<ellipse fill="#6d1700" fill-opacity="0.501961" cx="119" cy="8" rx="7" ry="3" />
<ellipse fill="#2b453f" fill-opacity="0.501961" cx="107" cy="117" rx="5" ry="4" />
<ellipse fill="#630000" fill-opacity="0.501961" cx="137" cy="93" rx="6" ry="12" />
<ellipse fill="#008e85" fill-opacity="0.501961" cx="149" cy="80" rx="2" ry="5" />
<ellipse fill="#00a383" fill-opacity="0.501961" cx="186" cy="133" rx="3" ry="4" />
<ellipse fill="#131602" fill-opacity="0.501961" cx="104" cy="135" rx="23" ry="4" />
<ellipse fill="#b485a5" fill-opacity="0.501961" cx="135" cy="128" rx="1" ry="3" />
<ellipse fill="#7a0008" fill-opacity="0.501961" cx="119" cy="60" rx="3" ry="28" />
<ellipse fill="#005d5f" fill-opacity="0.501961" cx="196" cy="133" rx="4" ry="4" />
<ellipse fill="#962c1a" fill-opacity="0.501961" cx="178" cy="66" rx="2" ry="12" />
<ellipse fill="#890000" fill-opacity="0.501961" cx="126" cy="105" rx="2" ry="5" />
<ellipse fill="#005b2a" fill-opacity="0.501961" cx="201" cy="98" rx="2" ry="5" />
<ellipse fill="#4a4a52" fill-opacity="0.501961" cx="86" cy="59" rx="7" ry="1" />
<ellipse fill="#92313a" fill-opacity="0.501961" cx="173" cy="65" rx="2" ry="10" />
<ellipse fill="#00a496" fill-opacity="0.501961" cx="160" cy="97" rx="6" ry="6" />
<ellipse fill="#00498f" fill-opacity="0.501961" cx="206" cy="127" rx="3" ry="4" />
<ellipse fill="#657100" fill-opacity="0.501961" cx="148" cy="67" rx="5" ry="5" />
<ellipse fill="#1e2d00" fill-opacity="0.501961" cx="118" cy="0" rx="17" ry="3" />
<ellipse fill="#a46d43" fill-opacity="0.501961" cx="103" cy="3" rx="5" ry="1" />
<ellipse fill="#2b830f" fill-opacity="0.501961" cx="172" cy="79" rx="3" ry="5" />
<ellipse fill="#310b07" fill-opacity="0.501961" cx="170" cy="114" rx="2" ry="5" />
<ellipse fill="#8b060d" fill-opacity="0.501961" cx="146" cy="38" rx="21" ry="2" />
<ellipse fill="#6b453a" fill-opacity="0.501961" cx="140" cy="115" rx="3" ry="7" />
<ellipse fill="#595249" fill-opacity="0.501961" cx="97" cy="111" rx="3" ry="3" />
<ellipse fill="#042100" fill-opacity="0.501961" cx="196" cy="109" rx="2" ry="4" />
<ellipse fill="#074565" fill-opacity="0.501961" cx="185" cy="115" rx="3" ry="2" />
<ellipse fill="#bfaa8d" fill-opacity="0.501961" cx="62" cy="85" rx="4" ry="4" />
<ellipse fill="#090a00" fill-opacity="0.501961" cx="198" cy="54" rx="6" ry="7" />
<ellipse fill="#ad020d" fill-opacity="0.501961" cx="114" cy="67" rx="7" ry="5" />
<ellipse fill="#190c00" fill-opacity="0.501961" cx="83" cy="82" rx="1" ry="2" />
<ellipse fill="#b15340" fill-opacity="0.501961" cx="81" cy="6" rx="6" ry="2" />
<ellipse fill="#2e3d42" fill-opacity="0.501961" cx="68" cy="72" rx="2" ry="12" />
<ellipse fill="#191d02" fill-opacity="0.501961" cx="15" cy="42" rx="20" ry="19" />
<ellipse fill="#1e5b45" fill-opacity="0.501961" cx="79" cy="89" rx="2" ry="3" />
<ellipse fill="#9a000a" fill-opacity="0.501961" cx="93" cy="98" rx="4" ry="7" />
<ellipse fill="#e20620" fill-opacity="0.501961" cx="85" cy="40" rx="10" ry="4" />
<ellipse fill="#191901" fill-opacity="0.501961" cx="37" cy="81" rx="2" ry="14" />
<ellipse fill="#00524f" fill-opacity="0.501961" cx="168" cy="107" rx="2" ry="14" />
<ellipse fill="#00542e" fill-opacity="0.501961" cx="174" cy="115" rx="2" ry="3" />
<ellipse fill="#004787" fill-opacity="0.501961" cx="226" cy="143" rx="3" ry="4" />
<ellipse fill="#043d4e" fill-opacity="0.501961" cx="55" cy="49" rx="1" ry="2" />
<ellipse fill="#587078" fill-opacity="0.501961" cx="131" cy="134" rx="4" ry="4" />
<ellipse fill="#271c18" fill-opacity="0.501961" cx="174" cy="131" rx="4" ry="2" />
<ellipse fill="#0f1703" fill-opacity="0.501961" cx="55" cy="3" rx="12" ry="11" />
<ellipse fill="#9e7c54" fill-opacity="0.501961" cx="152" cy="141" rx="4" ry="28" />
<ellipse fill="#73585c" fill-opacity="0.501961" cx="99" cy="77" rx="2" ry="4" />
<ellipse fill="#68080b" fill-opacity="0.501961" cx="109" cy="75" rx="10" ry="3" />
<ellipse fill="#4e4d15" fill-opacity="0.501961" cx="137" cy="0" rx="5" ry="15" />
<ellipse fill="#6e000a" fill-opacity="0.501961" cx="112" cy="53" rx="8" ry="6" />
<ellipse fill="#39444c" fill-opacity="0.501961" cx="145" cy="117" rx="4" ry="4" />
<ellipse fill="#5a0a0e" fill-opacity="0.501961" cx="93" cy="60" rx="5" ry="6" />
<ellipse fill="#943523" fill-opacity="0.501961" cx="76" cy="79" rx="2" ry="4" />
<ellipse fill="#5a6b55" fill-opacity="0.501961" cx="85" cy="96" rx="2" ry="3" />
<ellipse fill="#d3050f" fill-opacity="0.501961" cx="100" cy="102" rx="4" ry="4" />
<ellipse fill="#bf030e" fill-opacity="0.501961" cx="115" cy="94" rx="2" ry="4" />
<ellipse fill="#967d59" fill-opacity="0.501961" cx="168" cy="140" rx="4" ry="4" />
<ellipse fill="#689300" fill-opacity="0.501961" cx="201" cy="87" rx="1" ry="5" />
<ellipse fill="#d01426" fill-opacity="0.501961" cx="140" cy="25" rx="4" ry="4" />
<ellipse fill="#8a0003" fill-opacity="0.501961" cx="131" cy="75" rx="9" ry="13" />
<ellipse fill="#7db40b" fill-opacity="0.501961" cx="182" cy="81" rx="2" ry="10" />
<ellipse fill="#975a55" fill-opacity="0.501961" cx="107" cy="96" rx="4" ry="7" />
<ellipse fill="#ee7b7f" fill-opacity="0.501961" cx="77" cy="46" rx="2" ry="4" />
<ellipse fill="#d73931" fill-opacity="0.501961" cx="87" cy="76" rx="3" ry="11" />
<ellipse fill="#3b202c" fill-opacity="0.501961" cx="157" cy="110" rx="2" ry="5" />
<ellipse fill="#89090b" fill-opacity="0.501961" cx="134" cy="118" rx="4" ry="8" />
<ellipse fill="#090600" fill-opacity="0.501961" cx="200" cy="114" rx="4" ry="2" />
<ellipse fill="#70675a" fill-opacity="0.501961" cx="169" cy="124" rx="4" ry="4" />
<ellipse fill="#00b88f" fill-opacity="0.501961" cx="167" cy="117" rx="1" ry="2" />
<ellipse fill="#080000" fill-opacity="0.501961" cx="208" cy="121" rx="2" ry="3" />
<ellipse fill="#96190d" fill-opacity="0.501961" cx="117" cy="14" rx="22" ry="5" />
<ellipse fill="#222607" fill-opacity="0.501961" cx="222" cy="42" rx="25" ry="8" />
<ellipse fill="#0f567b" fill-opacity="0.501961" cx="195" cy="117" rx="4" ry="2" />
<ellipse fill="#53270a" fill-opacity="0.501961" cx="193" cy="65" rx="3" ry="7" />
<ellipse fill="#bc2632" fill-opacity="0.501961" cx="140" cy="49" rx="6" ry="6" />
<ellipse fill="#d6f4ed" fill-opacity="0.501961" cx="54" cy="44" rx="1" ry="1" />
<ellipse fill="#005baf" fill-opacity="0.501961" cx="209" cy="132" rx="3" ry="7" />
<ellipse fill="#a02a24" fill-opacity="0.501961" cx="39" cy="44" rx="3" ry="5" />
<ellipse fill="#ac0000" fill-opacity="0.501961" cx="83" cy="13" rx="9" ry="4" />
<ellipse fill="#649005" fill-opacity="0.501961" cx="200" cy="85" rx="1" ry="5" />
<ellipse fill="#844e23" fill-opacity="0.501961" cx="142" cy="63" rx="2" ry="9" />
<ellipse fill="#716300" fill-opacity="0.501961" cx="161" cy="66" rx="4" ry="4" />
<ellipse fill="#c2b6b3" fill-opacity="0.501961" cx="51" cy="51" rx="3" ry="4" />
<ellipse fill="#060b04" fill-opacity="0.501961" cx="246" cy="79" rx="27" ry="12" />
<ellipse fill="#893b37" fill-opacity="0.501961" cx="114" cy="61" rx="4" ry="3" />
<ellipse fill="#2e3112" fill-opacity="0.501961" cx="69" cy="90" rx="11" ry="2" />
<ellipse fill="#809700" fill-opacity="0.501961" cx="203" cy="95" rx="1" ry="5" />
<ellipse fill="#00ac99" fill-opacity="0.501961" cx="215" cy="124" rx="1" ry="3" />
<ellipse fill="#9b0410" fill-opacity="0.501961" cx="148" cy="108" rx="4" ry="2" />
<ellipse fill="#08b669" fill-opacity="0.501961" cx="193" cy="104" rx="1" ry="8" />
<ellipse fill="#c1baac" fill-opacity="0.501961" cx="50" cy="71" rx="2" ry="6" />
<ellipse fill="#529c0d" fill-opacity="0.501961" cx="175" cy="84" rx="1" ry="15" />
<ellipse fill="#7b6b55" fill-opacity="0.501961" cx="133" cy="143" rx="5" ry="4" />
<ellipse fill="#0dd49d" fill-opacity="0.501961" cx="186" cy="102" rx="5" ry="5" />
<ellipse fill="#006087" fill-opacity="0.501961" cx="218" cy="141" rx="2" ry="12" />
<ellipse fill="#396855" fill-opacity="0.501961" cx="88" cy="103" rx="2" ry="2" />
<ellipse fill="#030000" fill-opacity="0.501961" cx="213" cy="127" rx="1" ry="2" />
<ellipse fill="#171403" fill-opacity="0.501961" cx="71" cy="110" rx="19" ry="13" />
<ellipse fill="#024e4d" fill-opacity="0.501961" cx="193" cy="127" rx="2" ry="3" />
<ellipse fill="#6fa602" fill-opacity="0.501961" cx="155" cy="75" rx="4" ry="6" />
<ellipse fill="#595a58" fill-opacity="0.501961" cx="161" cy="117" rx="3" ry="3" />
<ellipse fill="#9f4333" fill-opacity="0.501961" cx="107" cy="7" rx="6" ry="2" />
<ellipse fill="#a30000" fill-opacity="0.501961" cx="41" cy="51" rx="3" ry="9" />
<ellipse fill="#001935" fill-opacity="0.501961" cx="203" cy="127" rx="1" ry="2" />
<ellipse fill="#007996" fill-opacity="0.501961" cx="180" cy="115" rx="4" ry="6" />
<ellipse fill="#9b0216" fill-opacity="0.501961" cx="45" cy="64" rx="6" ry="2" />
<ellipse fill="#64b700" fill-opacity="0.501961" cx="197" cy="98" rx="2" ry="9" />
<ellipse fill="#382616" fill-opacity="0.501961" cx="174" cy="120" rx="4" ry="3" />
<ellipse fill="#2a3c45" fill-opacity="0.501961" cx="142" cy="125" rx="2" ry="7" />
<ellipse fill="#92554d" fill-opacity="0.501961" cx="110" cy="102" rx="4" ry="4" />
<ellipse fill="#84a4a3" fill-opacity="0.501961" cx="65" cy="80" rx="1" ry="7" />
<ellipse fill="#36393a" fill-opacity="0.501961" cx="125" cy="140" rx="3" ry="10" />
<ellipse fill="#004472" fill-opacity="0.501961" cx="200" cy="121" rx="3" ry="4" />
<ellipse fill="#625f46" fill-opacity="0.501961" cx="82" cy="89" rx="2" ry="6" />
<ellipse fill="#81190b" fill-opacity="0.501961" cx="181" cy="56" rx="3" ry="6" />
<ellipse fill="#007dd8" fill-opacity="0.501961" cx="207" cy="136" rx="3" ry="4" />
<ellipse fill="#0faf82" fill-opacity="0.501961" cx="178" cy="98" rx="3" ry="9" />
<ellipse fill="#9a1313" fill-opacity="0.501961" cx="155" cy="58" rx="2" ry="10" />
<ellipse fill="#5d9400" fill-opacity="0.501961" cx="174" cy="85" rx="2" ry="9" />
<ellipse fill="#090e02" fill-opacity="0.501961" cx="220" cy="100" rx="11" ry="18" />
<ellipse fill="#5c585b" fill-opacity="0.501961" cx="144" cy="134" rx="3" ry="11" />
<ellipse fill="#f1112d" fill-opacity="0.501961" cx="62" cy="34" rx="3" ry="4" />
<ellipse fill="#7e5f00" fill-opacity="0.501961" cx="182" cy="127" rx="2" ry="3" />
<ellipse fill="#38657e" fill-opacity="0.501961" cx="73" cy="83" rx="4" ry="2" />
<ellipse fill="#592421" fill-opacity="0.501961" cx="118" cy="119" rx="5" ry="4" />
<ellipse fill="#9b0111" fill-opacity="0.501961" cx="128" cy="63" rx="13" ry="3" />
<ellipse fill="#bfd1d5" fill-opacity="0.501961" cx="81" cy="52" rx="2" ry="6" />
<ellipse fill="#a34946" fill-opacity="0.501961" cx="127" cy="121" rx="3" ry="4" />
<ellipse fill="#1b544a" fill-opacity="0.501961" cx="117" cy="125" rx="3" ry="3" />
<ellipse fill="#bc2523" fill-opacity="0.501961" cx="89" cy="91" rx="6" ry="6" />
<ellipse fill="#c69d9c" fill-opacity="0.501961" cx="47" cy="57" rx="4" ry="3" />
<ellipse fill="#803023" fill-opacity="0.501961" cx="131" cy="113" rx="3" ry="5" />
<ellipse fill="#151408" fill-opacity="0.501961" cx="230" cy="126" rx="12" ry="14" />
<ellipse fill="#d60000" fill-opacity="0.501961" cx="49" cy="43" rx="3" ry="4" />
<ellipse fill="#598b19" fill-opacity="0.501961" cx="181" cy="75" rx="3" ry="5" />
<ellipse fill="#b2000e" fill-opacity="0.501961" cx="122" cy="106" rx="4" ry="7" />
<ellipse fill="#0182ad" fill-opacity="0.501961" cx="173" cy="101" rx="3" ry="4" />
<ellipse fill="#842c27" fill-opacity="0.501961" cx="157" cy="28" rx="4" ry="5" />
<ellipse fill="#0774cb" fill-opacity="0.501961" cx="194" cy="122" rx="2" ry="2" />
<ellipse fill="#1a1a06" fill-opacity="0.501961" cx="28" cy="22" rx="12" ry="29" />
<ellipse fill="#a24c41" fill-opacity="0.501961" cx="41" cy="37" rx="2" ry="3" />
<ellipse fill="#5a1417" fill-opacity="0.501961" cx="149" cy="31" rx="5" ry="2" />
<ellipse fill="#3e5360" fill-opacity="0.501961" cx="55" cy="65" rx="2" ry="2" />
<ellipse fill="#a92929" fill-opacity="0.501961" cx="35" cy="52" rx="2" ry="4" />
<ellipse fill="#8c0117" fill-opacity="0.501961" cx="133" cy="39" rx="3" ry="16" />
<ellipse fill="#580000" fill-opacity="0.501961" cx="155" cy="108" rx="2" ry="4" />
<ellipse fill="#914539" fill-opacity="0.501961" cx="145" cy="74" rx="2" ry="6" />
<ellipse fill="#007168" fill-opacity="0.501961" cx="200" cy="142" rx="2" ry="9" />
<ellipse fill="#4fc354" fill-opacity="0.501961" cx="181" cy="97" rx="1" ry="6" />
<ellipse fill="#102d2e" fill-opacity="0.501961" cx="191" cy="123" rx="1" ry="4" />
<ellipse fill="#050a24" fill-opacity="0.501961" cx="198" cy="122" rx="1" ry="2" />
<ellipse fill="#8a9295" fill-opacity="0.501961" cx="62" cy="64" rx="2" ry="2" />
<ellipse fill="#b2392c" fill-opacity="0.501961" cx="49" cy="29" rx="4" ry="4" />
<ellipse fill="#7d0004" fill-opacity="0.501961" cx="98" cy="83" rx="2" ry="4" />
<ellipse fill="#007397" fill-opacity="0.501961" cx="185" cy="122" rx="3" ry="4" />
<ellipse fill="#5d0000" fill-opacity="0.501961" cx="149" cy="102" rx="6" ry="5" />
<ellipse fill="#085333" fill-opacity="0.501961" cx="203" cy="106" rx="1" ry="8" />
<ellipse fill="#544738" fill-opacity="0.501961" cx="105" cy="114" rx="8" ry="3" />
<ellipse fill="#003c90" fill-opacity="0.501961" cx="213" cy="136" rx="2" ry="2" />
<ellipse fill="#b6443a" fill-opacity="0.501961" cx="144" cy="26" rx="4" ry="2" />
<ellipse fill="#003119" fill-opacity="0.501961" cx="196" cy="81" rx="1" ry="4" />
<ellipse fill="#b9332d" fill-opacity="0.501961" cx="158" cy="45" rx="9" ry="4" />
<ellipse fill="#5e3f3b" fill-opacity="0.501961" cx="182" cy="143" rx="4" ry="6" />
<ellipse fill="#c9271f" fill-opacity="0.501961" cx="90" cy="88" rx="10" ry="3" />
<ellipse fill="#884410" fill-opacity="0.501961" cx="189" cy="73" rx="2" ry="7" />
<ellipse fill="#4c6120" fill-opacity="0.501961" cx="86" cy="0" rx="15" ry="3" />
<ellipse fill="#67a902" fill-opacity="0.501961" cx="193" cy="89" rx="4" ry="6" />
<ellipse fill="#0c2700" fill-opacity="0.501961" cx="205" cy="115" rx="2" ry="5" />
<ellipse fill="#00ad79" fill-opacity="0.501961" cx="190" cy="114" rx="3" ry="3" />
<ellipse fill="#a35960" fill-opacity="0.501961" cx="102" cy="83" rx="2" ry="6" />
<ellipse fill="#510107" fill-opacity="0.501961" cx="112" cy="84" rx="4" ry="4" />
<ellipse fill="#c19d6e" fill-opacity="0.501961" cx="159" cy="123" rx="4" ry="3" />
<ellipse fill="#02c59c" fill-opacity="0.501961" cx="163" cy="95" rx="2" ry="6" />
<ellipse fill="#008f28" fill-opacity="0.501961" cx="209" cy="115" rx="1" ry="6" />
<ellipse fill="#bd5553" fill-opacity="0.501961" cx="97" cy="74" rx="1" ry="3" />
<ellipse fill="#718200" fill-opacity="0.501961" cx="202" cy="92" rx="1" ry="5" />
<ellipse fill="#6bdc34" fill-opacity="0.501961" cx="186" cy="96" rx="1" ry="3" />
<ellipse fill="#793b04" fill-opacity="0.501961" cx="112" cy="5" rx="8" ry="2" />
<ellipse fill="#690713" fill-opacity="0.501961" cx="106" cy="76" rx="2" ry="6" />
<ellipse fill="#008684" fill-opacity="0.501961" cx="159" cy="103" rx="3" ry="5" />
<ellipse fill="#390300" fill-opacity="0.501961" cx="153" cy="65" rx="1" ry="3" />
<ellipse fill="#d5d7d6" fill-opacity="0.501961" cx="67" cy="58" rx="3" ry="4" />
<ellipse fill="#007877" fill-opacity="0.501961" cx="82" cy="93" rx="1" ry="2" />
<ellipse fill="#720d00" fill-opacity="0.501961" cx="100" cy="110" rx="2" ry="2" />
<ellipse fill="#004f1b" fill-opacity="0.501961" cx="198" cy="86" rx="2" ry="4" />
<ellipse fill="#161919" fill-opacity="0.501961" cx="77" cy="65" rx="8" ry="5" />
<ellipse fill="#61ba07" fill-opacity="0.501961" cx="205" cy="101" rx="1" ry="6" />
<ellipse fill="#6f6d08" fill-opacity="0.501961" cx="197" cy="76" rx="2" ry="3" />
<ellipse fill="#41231f" fill-opacity="0.501961" cx="120" cy="123" rx="4" ry="3" />
<ellipse fill="#bf010e" fill-opacity="0.501961" cx="98" cy="30" rx="4" ry="12" />
<ellipse fill="#161800" fill-opacity="0.501961" cx="109" cy="134" rx="5" ry="13" />
<ellipse fill="#004c2c" fill-opacity="0.501961" cx="199" cy="91" rx="1" ry="4" />
<ellipse fill="#730009" fill-opacity="0.501961" cx="122" cy="43" rx="3" ry="5" />
<ellipse fill="#b70a11" fill-opacity="0.501961" cx="102" cy="104" rx="5" ry="6" />
<ellipse fill="#a40c17" fill-opacity="0.501961" cx="113" cy="80" rx="3" ry="3" />
<ellipse fill="#004259" fill-opacity="0.501961" cx="166" cy="104" rx="2" ry="3" />
<ellipse fill="#b83a30" fill-opacity="0.501961" cx="45" cy="32" rx="3" ry="4" />
<ellipse fill="#e37d78" fill-opacity="0.501961" cx="86" cy="46" rx="1" ry="2" />
<ellipse fill="#b40411" fill-opacity="0.501961" cx="88" cy="66" rx="4" ry="3" />
<ellipse fill="#cd0910" fill-opacity="0.501961" cx="55" cy="33" rx="3" ry="8" />
<ellipse fill="#9e0009" fill-opacity="0.501961" cx="141" cy="78" rx="3" ry="8" />
<ellipse fill="#0c1b15" fill-opacity="0.501961" cx="81" cy="83" rx="2" ry="2" />
<ellipse fill="#6b4736" fill-opacity="0.501961" cx="184" cy="52" rx="2" ry="6" />
<ellipse fill="#103033" fill-opacity="0.501961" cx="53" cy="66" rx="1" ry="2" />
<ellipse fill="#121603" fill-opacity="0.501961" cx="189" cy="43" rx="9" ry="6" />
<ellipse fill="#df152c" fill-opacity="0.501961" cx="89" cy="36" rx="3" ry="18" />
<ellipse fill="#53796f" fill-opacity="0.501961" cx="119" cy="127" rx="2" ry="2" />
<ellipse fill="#530205" fill-opacity="0.501961" cx="125" cy="92" rx="8" ry="5" />
<ellipse fill="#0bc047" fill-opacity="0.501961" cx="199" cy="105" rx="2" ry="5" />
<ellipse fill="#85af00" fill-opacity="0.501961" cx="180" cy="86" rx="6" ry="3" />
<ellipse fill="#191906" fill-opacity="0.501961" cx="205" cy="66" rx="9" ry="12" />
<ellipse fill="#950510" fill-opacity="0.501961" cx="143" cy="20" rx="5" ry="4" />
</g>
</svg>