<svg xmlns="http://www.w3.org/2000/svg" width="256" height="144" viewBox="0 0 256 144" version="1.1">
	<rect x="0" y="0" width="100%" height="100%" fill="#F6F8FA" />
	<path d="M 0 72.020 L 0 144.040 63.471 143.978 C 119.039 143.923, 127.132 143.725, 128.471 142.386 C 130.291 140.566, 130.267 140.833, 128.930 137.315 C 127.812 134.376, 127.931 133.310, 129.324 133.775 C 129.778 133.926, 129.884 133.622, 129.561 133.099 C 129.238 132.577, 127.658 132.316, 126.049 132.519 C 123.538 132.837, 122.051 131.827, 115.555 125.394 C 109.148 119.049, 108.081 117.524, 108.602 115.450 C 109.070 113.584, 108.820 113, 107.549 113 C 106.632 113, 106.160 113.450, 106.500 114 C 107.438 115.518, 106.052 115.195, 104.357 113.500 C 102.778 111.921, 103.145 111.672, 106.649 111.948 C 108.119 112.063, 108.750 111.580, 108.649 110.416 C 108.395 107.511, 110.659 107.761, 114.406 111.052 C 118.531 114.674, 119.331 117.192, 115.365 114.073 C 113.916 112.933, 111.813 112, 110.691 112 L 108.651 112 110.677 114.250 C 111.791 115.487, 113.081 117.175, 113.543 118 C 114.272 119.300, 114.155 119.314, 112.668 118.107 C 109.409 115.464, 109.646 118.040, 112.978 121.477 C 115.031 123.595, 118.570 125.684, 122.159 126.896 C 128.239 128.949, 128.995 128.698, 126.532 125.441 C 124.633 122.930, 124.581 119.333, 126.444 119.333 C 127.239 119.333, 127.861 119.596, 127.826 119.917 C 127.645 121.600, 128.087 122.975, 128.750 122.784 C 130.056 122.407, 136.975 127.444, 136.988 128.781 C 136.994 129.486, 137.675 130.322, 138.500 130.638 C 140.746 131.500, 140.309 133.314, 138 132.710 C 134.554 131.809, 135.369 137.309, 139.214 140.902 C 142.452 143.929, 144.368 144.353, 142.020 141.524 C 141.086 140.399, 141.064 140, 141.937 140 C 142.586 140, 142.809 139.500, 142.431 138.888 C 142.053 138.277, 142.364 137.377, 143.122 136.888 C 144.270 136.148, 144.276 135.855, 143.158 135.134 C 142.058 134.424, 142.047 133.898, 143.098 132.215 C 144.146 130.537, 144.137 129.870, 143.048 128.558 C 141.903 127.178, 141.956 127.046, 143.429 127.611 C 144.919 128.183, 145.053 127.798, 144.459 124.634 C 144.043 122.418, 144.169 121, 144.780 121 C 145.332 121, 146.070 119.859, 146.420 118.465 C 147.334 114.823, 151.303 113.543, 157.400 114.924 C 162.125 115.994, 164.574 115.637, 162.386 114.196 C 161.804 113.813, 160.771 112.600, 160.089 111.500 C 159.048 109.821, 158.941 109.794, 159.425 111.334 C 159.804 112.539, 159.573 113.017, 158.751 112.729 C 158.063 112.488, 157.624 111.138, 157.774 109.730 C 157.936 108.226, 155.976 102.955, 153.024 96.952 C 150.261 91.332, 148 85.642, 148 84.308 C 148 82.974, 147.573 82.146, 147.051 82.469 C 146.528 82.792, 145.799 81.356, 145.429 79.278 C 145.059 77.200, 143.846 73.338, 142.732 70.696 C 141.248 67.176, 141.004 65.596, 141.818 64.782 C 142.631 63.969, 142.381 63.198, 140.881 61.896 C 139.272 60.501, 139.059 59.733, 139.886 58.310 C 140.878 56.605, 140.945 56.616, 141.033 58.500 C 141.119 60.343, 141.198 60.323, 142.031 58.250 C 142.529 57.013, 143.625 56, 144.468 56 C 146.134 56, 146.581 57.626, 145.064 58.167 C 143.989 58.549, 146.063 66, 147.245 66 C 147.660 66, 148 65.602, 148 65.117 C 148 64.631, 148.864 64.007, 149.920 63.731 C 151.308 63.368, 151.999 63.860, 152.412 65.504 C 152.972 67.736, 156 69.842, 156 68 C 156 67.485, 156.611 67.297, 157.358 67.584 C 158.426 67.994, 158.632 66.970, 158.323 62.803 L 157.929 57.500 159.450 61.500 C 160.286 63.700, 160.977 65.639, 160.985 65.809 C 160.993 65.979, 161.412 65.863, 161.916 65.552 C 162.885 64.953, 162.627 60.127, 161.411 56.094 C 160.909 54.429, 161.030 53.900, 161.804 54.379 C 162.419 54.759, 163.199 56.742, 163.537 58.785 C 164.380 63.883, 166.040 68, 167.252 68 C 167.849 68, 168.028 66.559, 167.690 64.478 C 167.297 62.055, 167.461 61.167, 168.217 61.634 C 168.939 62.080, 169.122 61.575, 168.751 60.156 C 168.441 58.970, 168.547 58, 168.987 58 C 170.372 58, 170.915 60.749, 170.290 64.598 C 169.856 67.272, 170.011 68.111, 170.844 67.596 C 171.480 67.203, 172.020 65.671, 172.045 64.191 C 172.070 62.711, 172.643 60.206, 173.318 58.624 C 174.474 55.918, 174.634 55.854, 176.023 57.537 C 177.153 58.905, 177.206 59.424, 176.250 59.746 C 175.562 59.977, 175 61.003, 175 62.024 C 175 63.046, 174.550 64.160, 174 64.500 C 172.749 65.273, 172.670 72, 173.912 72 C 174.414 72, 175.128 70.202, 175.499 68.005 C 175.870 65.808, 176.585 63.757, 177.087 63.446 C 177.589 63.136, 178.061 61.671, 178.136 60.191 C 178.255 57.834, 178.326 57.779, 178.706 59.750 C 179.264 62.647, 180.736 62.647, 181.294 59.750 C 181.666 57.821, 181.747 57.892, 181.864 60.250 C 181.948 61.941, 181.487 63, 180.669 63 C 178.855 63, 177.059 66.948, 177.485 70 C 177.676 71.375, 177.916 73.400, 178.017 74.500 C 178.118 75.600, 178.620 74.708, 179.133 72.517 C 180.356 67.293, 181.975 65.662, 182.079 69.550 C 182.122 71.172, 182.385 71.938, 182.662 71.250 C 182.940 70.563, 183.834 70, 184.651 70 C 185.605 70, 185.940 69.375, 185.590 68.250 C 185.291 67.287, 185.478 65.825, 186.008 65 C 186.712 63.902, 186.973 64.597, 186.985 67.596 C 187 71.784, 190.023 79.430, 190.774 77.179 C 191.002 76.494, 190.873 75.161, 190.488 74.217 C 189.569 71.966, 189.309 65.070, 190.163 65.600 C 190.528 65.826, 191.130 67.808, 191.501 70.005 C 192.338 74.959, 193.180 75.055, 194.648 70.366 C 195.562 67.446, 195.490 66.021, 194.280 63.116 C 193.453 61.127, 192.443 59.275, 192.037 59 C 191.631 58.725, 190.708 57.375, 189.986 56 C 188.790 53.724, 188.820 53.621, 190.312 54.852 C 192.462 56.626, 197.250 66.786, 196.504 67.993 C 196.185 68.509, 196.771 70.634, 197.805 72.716 C 198.839 74.797, 200.258 78.750, 200.958 81.500 C 202.256 86.597, 204.667 93.321, 214.399 118.972 C 217.418 126.932, 219.627 133.682, 219.308 133.972 C 218.988 134.263, 218.527 133.944, 218.284 133.264 C 218.042 132.584, 215.425 128.395, 212.470 123.955 C 209.515 119.514, 206.820 115.008, 206.481 113.941 C 205.812 111.831, 204.481 111.413, 203.498 113.003 C 202.466 114.674, 199.099 112.217, 197.612 108.707 L 196.254 105.500 195.564 108.500 C 195.184 110.150, 194.274 113.159, 193.542 115.187 L 192.210 118.875 197.147 123.126 C 199.862 125.465, 205.840 131.118, 210.432 135.689 C 220.617 145.828, 223.706 146.788, 214.276 136.884 C 210.549 132.970, 207.624 129.336, 207.775 128.809 C 207.926 128.282, 207.637 128.106, 207.134 128.417 C 206.290 128.939, 199 121.752, 199 120.398 C 199 119.446, 205.869 123.763, 209.121 126.760 C 216.012 133.109, 218.080 135.472, 218.616 137.608 C 218.928 138.850, 219.708 139.666, 220.349 139.420 C 220.990 139.174, 221.961 139.991, 222.507 141.236 C 223.481 143.456, 223.818 143.500, 240 143.500 L 256.500 143.500 256.757 71.750 L 257.013 0 216.114 -0 C 172.344 -0, 174 -0.185, 174 4.711 C 174 5.561, 172.449 7.974, 170.554 10.072 C 168.658 12.170, 166.622 15.692, 166.027 17.898 C 165.433 20.105, 164.305 22.552, 163.521 23.336 C 162.737 24.120, 162.374 25.040, 162.714 25.381 C 163.055 25.721, 162.133 26, 160.667 26 C 159.200 26, 158 25.594, 158 25.099 C 158 23.514, 150.998 20.002, 147.693 19.930 C 145.002 19.870, 144.814 19.724, 146.500 19 C 147.600 18.527, 147.970 18.109, 147.321 18.070 C 146.673 18.032, 145.548 17.437, 144.821 16.750 C 144.095 16.063, 141.767 14.205, 139.649 12.622 C 137.095 10.714, 136.197 9.496, 136.984 9.010 C 137.637 8.606, 138.186 7.877, 138.205 7.388 C 138.224 6.900, 138.636 5.458, 139.120 4.185 C 139.604 2.912, 140 1.449, 140 0.935 C 140 0.383, 130.895 0.006, 117.750 0.015 C 104.482 0.024, 96.063 0.387, 96.895 0.914 C 98.016 1.624, 97.918 1.893, 96.395 2.283 C 95.353 2.550, 97.501 2.820, 101.168 2.884 C 104.836 2.948, 108.548 3.273, 109.418 3.607 C 112.056 4.619, 111.187 5.985, 108.250 5.443 C 102.226 4.331, 88.280 4.475, 87.174 5.659 C 86.351 6.540, 86.378 6.970, 87.279 7.300 C 87.951 7.546, 87.375 7.758, 86 7.770 C 82.395 7.804, 73.739 8.928, 73.239 9.427 C 73.006 9.661, 72.672 11.385, 72.498 13.258 C 72.037 18.223, 66.618 23.400, 62.012 23.277 C 60.093 23.226, 57.667 23.643, 56.619 24.204 C 54.363 25.411, 49.577 30.185, 48.089 32.712 C 47.173 34.268, 46.906 34.305, 46.034 33 C 45.229 31.796, 45.024 31.994, 44.998 34 C 44.980 35.375, 43.821 37.586, 42.423 38.912 C 41.025 40.239, 38.312 44.514, 36.394 48.412 C 34.476 52.311, 33.203 54.375, 33.566 53 C 33.929 51.625, 36.513 45.775, 39.308 40 C 43.347 31.654, 45.761 28.115, 51.077 22.750 C 57.935 15.830, 59.402 14.789, 58.317 17.616 C 57.349 20.139, 60.788 17.915, 65.334 13.079 C 67.443 10.835, 69.622 9, 70.177 9 C 71.511 9, 76.526 5.034, 75.385 4.882 C 74.898 4.816, 74.143 4.823, 73.707 4.896 C 73.271 4.969, 73.384 4.152, 73.957 3.080 C 74.531 2.008, 75 0.877, 75 0.566 C 75 0.255, 58.125 0, 37.500 0 L 0 0 0 72.020 M 0.474 72.500 C 0.474 112.100, 0.598 128.154, 0.750 108.176 C 0.901 88.198, 0.901 55.798, 0.750 36.176 C 0.598 16.554, 0.474 32.900, 0.474 72.500 M 114.279 6.057 C 114.360 7.126, 115.005 8, 115.713 8 C 117.465 8, 117.349 5.348, 115.566 4.664 C 114.602 4.294, 114.181 4.750, 114.279 6.057 M 102.441 7.468 C 100.642 8.829, 100.829 8.936, 105 8.936 C 109.171 8.936, 109.358 8.829, 107.559 7.468 C 106.491 6.661, 105.340 6, 105 6 C 104.660 6, 103.509 6.661, 102.441 7.468 M 60.507 14.989 C 60.157 15.555, 60.558 15.723, 61.448 15.382 C 63.180 14.717, 63.497 14, 62.059 14 C 61.541 14, 60.843 14.445, 60.507 14.989 M 137.500 17 C 137.840 17.550, 138.316 18, 138.559 18 C 138.802 18, 139 17.550, 139 17 C 139 16.450, 138.523 16, 137.941 16 C 137.359 16, 137.160 16.450, 137.500 17 M 65.405 20.155 L 63.500 22.310 66.250 20.540 C 69.086 18.715, 69.622 18, 68.155 18 C 67.690 18, 66.453 18.970, 65.405 20.155 M 75.964 24.538 C 73.784 26.759, 72 29.084, 72 29.705 C 72 30.325, 70.763 31.285, 69.250 31.838 C 67.517 32.471, 67.147 32.871, 68.250 32.921 C 70.806 33.036, 70.395 35, 67.814 35 C 66.612 35, 64.612 35.955, 63.370 37.122 L 61.110 39.245 61.426 36.372 C 61.750 33.422, 60.637 32.017, 58 32.049 C 56.894 32.062, 57.056 32.531, 58.619 33.838 L 60.739 35.609 57.955 38.724 C 56.425 40.437, 54.981 41.648, 54.748 41.414 C 54.514 41.181, 53.123 43.195, 51.656 45.890 C 50.190 48.585, 48.394 51.018, 47.667 51.298 C 45.526 52.119, 42.956 58.243, 44.150 59.680 C 44.712 60.358, 44.905 61.345, 44.577 61.875 C 44.250 62.404, 45.336 63.135, 46.991 63.498 C 50.212 64.205, 51.160 66.927, 48.250 67.110 C 38.777 67.703, 38.492 67.840, 39.379 71.375 C 41.495 79.805, 54.568 89, 64.438 89 C 70.566 89, 75.601 87.482, 76.403 85.392 C 76.985 83.875, 76.558 83.623, 71.510 82.504 C 67.997 81.725, 67.036 80.496, 67.015 76.750 C 67.007 75.237, 66.550 74, 66 74 C 65.450 74, 65 74.450, 65 75 C 65 77.034, 63.447 75.907, 62.120 72.910 C 60.912 70.179, 60.951 69.626, 62.457 68.160 C 64.055 66.605, 64.141 66.683, 63.831 69.401 C 63.586 71.547, 63.953 72.370, 65.237 72.561 C 66.682 72.776, 66.793 72.482, 65.901 70.815 C 64.941 69.021, 65.073 68.878, 67.164 69.457 C 69.358 70.064, 69.389 70.014, 67.671 68.634 C 63.257 65.086, 72.116 60, 82.710 60 C 88.635 60, 90.320 58.343, 88.066 54.734 C 87.141 53.254, 87.113 52.548, 87.955 52.028 C 89.168 51.278, 87.957 49.886, 85 48.633 C 84.175 48.283, 85.300 48.255, 87.500 48.571 C 91.183 49.099, 91.344 49.029, 89.538 47.681 C 87.869 46.435, 87.775 45.976, 88.910 44.608 C 90.849 42.273, 88.644 42.631, 86.500 45 C 84.719 46.968, 81 47.773, 81 46.191 C 81 45.746, 81.661 44.509, 82.468 43.441 C 84.629 40.585, 84.312 39.668, 81.777 41.443 C 78.905 43.455, 77.624 43.423, 78.416 41.359 C 78.943 39.986, 78.796 39.924, 77.523 40.981 C 76.481 41.846, 76 41.890, 76 41.122 C 76 40.505, 75.518 40, 74.929 40 C 73.292 40, 71.288 37.635, 71.750 36.250 C 72.053 35.342, 72.568 35.425, 73.709 36.566 C 74.561 37.418, 75.860 37.884, 76.597 37.601 C 77.333 37.319, 78.208 37.527, 78.540 38.065 C 78.873 38.603, 79.997 38.021, 81.039 36.771 C 82.081 35.522, 82.948 35.063, 82.967 35.750 C 83.018 37.688, 86.520 37.226, 89.139 34.936 C 90.683 33.586, 91.085 32.698, 90.302 32.370 C 89.374 31.981, 89.371 31.279, 90.290 29.263 C 91.202 27.261, 91.203 26.568, 90.294 26.265 C 89.644 26.048, 89.299 25.337, 89.528 24.685 C 90.327 22.407, 87.567 20.395, 83.714 20.448 C 80.648 20.490, 79.175 21.268, 75.964 24.538 M 64 25.059 C 64 25.641, 64.450 25.840, 65 25.500 C 65.550 25.160, 66 24.684, 66 24.441 C 66 24.198, 65.550 24, 65 24 C 64.450 24, 64 24.477, 64 25.059 M 60 26.059 C 60 26.641, 60.450 26.840, 61 26.500 C 61.550 26.160, 62 25.684, 62 25.441 C 62 25.198, 61.550 25, 61 25 C 60.450 25, 60 25.477, 60 26.059 M 141.573 25.760 C 141.003 26.331, 143.963 28.914, 145.250 28.968 C 145.662 28.986, 146 28.377, 146 27.617 C 146 26.210, 142.564 24.769, 141.573 25.760 M 56.813 27.683 C 57.534 27.972, 58.397 27.936, 58.729 27.604 C 59.061 27.272, 58.471 27.036, 57.417 27.079 C 56.252 27.127, 56.015 27.364, 56.813 27.683 M 66.721 29.286 C 66.433 30.035, 66.966 30.571, 68 30.571 C 69.034 30.571, 69.567 30.035, 69.279 29.286 C 69.008 28.579, 68.432 28, 68 28 C 67.568 28, 66.992 28.579, 66.721 29.286 M 154.500 29 C 154.840 29.550, 155.541 30, 156.059 30 C 156.577 30, 157 29.550, 157 29 C 157 28.450, 156.298 28, 155.441 28 C 154.584 28, 154.160 28.450, 154.500 29 M 159.657 31.746 C 159.234 32.430, 160.407 33.884, 162.561 35.347 C 164.548 36.698, 166.831 38.741, 167.634 39.888 C 168.966 41.789, 168.936 41.916, 167.297 41.317 C 165.665 40.721, 165.680 40.866, 167.460 42.891 C 169.108 44.766, 169.192 45.263, 167.988 46.007 C 166.778 46.755, 166.811 46.990, 168.201 47.524 C 169.105 47.871, 170.100 48.818, 170.411 49.629 C 170.772 50.569, 170.561 50.847, 169.831 50.396 C 169.052 49.914, 168.865 50.377, 169.249 51.844 C 169.568 53.063, 169.346 54, 168.740 54 C 168.150 54, 167.956 54.289, 168.309 54.643 C 168.663 54.996, 169.638 54.716, 170.476 54.020 C 171.747 52.965, 172 53.058, 172 54.578 C 172 55.820, 172.326 56.074, 173.023 55.377 C 173.720 54.680, 173.557 53.183, 172.510 50.677 C 170.977 47.009, 170.979 47, 173.487 47 C 174.869 47, 176 47.477, 176 48.059 C 176 48.641, 175.550 48.840, 175 48.500 C 173.660 47.672, 173.717 50.317, 175.069 51.669 C 175.657 52.257, 176.259 53.561, 176.407 54.565 C 176.554 55.570, 177.270 56.590, 177.997 56.832 C 178.896 57.132, 179.108 56.724, 178.659 55.555 C 178.297 54.610, 178 53.172, 178 52.359 C 178 51.547, 177.550 51.160, 177 51.500 C 176.450 51.840, 176 51.589, 176 50.942 C 176 50.259, 176.838 49.986, 178 50.290 C 179.100 50.577, 180 50.405, 180 49.906 C 180 49.408, 179.438 48.993, 178.750 48.985 C 177.976 48.975, 177.881 48.690, 178.500 48.235 C 180.001 47.132, 179.677 44.534, 177.805 42.663 C 175.707 40.564, 174.830 40.548, 175.206 42.616 C 175.614 44.857, 171.141 46.532, 170.338 44.439 C 170.016 43.600, 170.095 42.596, 170.513 42.207 C 170.932 41.818, 171.475 42.063, 171.720 42.750 C 172.476 44.868, 173.878 44.131, 173.623 41.750 C 173.293 38.670, 172.028 36.863, 168.500 34.436 C 163.604 31.067, 162.612 30.563, 163.405 31.845 C 163.821 32.519, 163.503 33, 162.642 33 C 161.831 33, 160.987 32.460, 160.766 31.799 C 160.470 30.909, 160.183 30.895, 159.657 31.746 M 163.933 42.771 C 164.571 44.020, 164.839 45.451, 164.530 45.952 C 164.221 46.452, 164.378 47.115, 164.879 47.425 C 166.950 48.705, 166.990 44.549, 164.925 42.567 L 162.773 40.500 163.933 42.771 M 153.750 42.662 C 154.438 42.940, 155 43.579, 155 44.083 C 155 45.307, 152.257 45.263, 151.833 44.032 C 151.626 43.429, 150.938 43.413, 150.008 43.990 C 147.923 45.285, 149.670 46.704, 154.214 47.405 C 157.438 47.902, 157.847 47.748, 157.309 46.239 C 156.395 43.672, 154.905 41.989, 153.628 42.079 C 152.919 42.129, 152.965 42.345, 153.750 42.662 M 159 45.137 C 159 45.897, 159.900 47.081, 161 47.768 C 162.822 48.906, 162.993 48.772, 162.921 46.258 C 162.878 44.741, 162.609 44.081, 162.324 44.792 C 161.926 45.784, 161.480 45.813, 160.403 44.919 C 159.314 44.016, 159 44.065, 159 45.137 M 138.454 47.926 C 138.761 48.423, 138.469 49.010, 137.805 49.232 C 136.966 49.511, 136.929 49.838, 137.686 50.306 C 138.284 50.676, 139.286 50.360, 139.912 49.606 C 140.788 48.551, 140.687 48.094, 139.474 47.628 C 138.606 47.295, 138.147 47.429, 138.454 47.926 M 55 49 C 55 49.550, 55.477 50, 56.059 50 C 56.641 50, 56.840 49.550, 56.500 49 C 56.160 48.450, 55.684 48, 55.441 48 C 55.198 48, 55 48.450, 55 49 M 183.543 51.321 C 183.798 53.423, 184.453 55.978, 184.999 56.999 C 185.546 58.020, 185.698 59.675, 185.337 60.678 C 184.495 63.018, 185.374 62.182, 186.964 59.129 C 187.644 57.825, 187.752 57.035, 187.205 57.374 C 186.657 57.712, 185.957 57.331, 185.648 56.526 C 185.340 55.722, 185.587 54.755, 186.198 54.378 C 186.871 53.962, 187.028 54.146, 186.595 54.845 C 186.203 55.480, 186.359 56, 186.941 56 C 188.282 56, 188.322 54.317, 187 53.500 C 186.450 53.160, 186 52.432, 186 51.882 C 186 51.332, 186.520 51.203, 187.155 51.595 C 187.892 52.051, 188.037 51.868, 187.554 51.088 C 187.139 50.416, 186.552 50.115, 186.249 50.418 C 185.946 50.721, 185.109 50.188, 184.389 49.234 C 183.254 47.730, 183.142 48.006, 183.543 51.321 M 141.813 51.683 C 142.534 51.972, 143.397 51.936, 143.729 51.604 C 144.061 51.272, 143.471 51.036, 142.417 51.079 C 141.252 51.127, 141.015 51.364, 141.813 51.683 M 137.500 54 C 137.840 54.550, 138.316 55, 138.559 55 C 138.802 55, 139 54.550, 139 54 C 139 53.450, 138.523 53, 137.941 53 C 137.359 53, 137.160 53.450, 137.500 54 M 166.079 54.583 C 166.127 55.748, 166.364 55.985, 166.683 55.188 C 166.972 54.466, 166.936 53.603, 166.604 53.271 C 166.272 52.939, 166.036 53.529, 166.079 54.583 M 152.425 57.782 C 152.593 60.137, 153.016 62.349, 153.365 62.698 C 154.304 63.637, 154 57.824, 152.989 55.500 C 152.360 54.052, 152.204 54.682, 152.425 57.782 M 114.500 61 C 114.160 61.550, 114.584 62, 115.441 62 C 116.298 62, 117 61.550, 117 61 C 117 60.450, 116.577 60, 116.059 60 C 115.541 60, 114.840 60.450, 114.500 61 M 111.564 63.707 C 111.022 65.132, 111.136 65.247, 112.124 64.267 C 112.808 63.588, 113.115 62.781, 112.807 62.474 C 112.499 62.166, 111.940 62.721, 111.564 63.707 M 183 63.500 C 183 64.325, 183.436 65, 183.969 65 C 184.501 65, 184.678 64.325, 184.362 63.500 C 184.045 62.675, 183.609 62, 183.393 62 C 183.177 62, 183 62.675, 183 63.500 M 52.527 65.806 C 52.267 66.066, 52.282 66.647, 52.559 67.096 C 53.134 68.027, 56 67.164, 56 66.060 C 56 65.257, 53.276 65.058, 52.527 65.806 M 87.798 68.741 C 88.269 71.218, 88.153 71.360, 86.661 70.128 C 85.304 69.006, 84.717 68.990, 83.453 70.039 C 82.217 71.065, 82.166 71.489, 83.203 72.146 C 84.159 72.753, 84.024 72.973, 82.691 72.985 C 81.603 72.994, 81.160 73.450, 81.580 74.130 C 82.007 74.820, 81.738 75.067, 80.889 74.765 C 78.237 73.821, 76.231 75.750, 76.781 78.715 C 77.463 82.391, 78.685 83.045, 81.828 81.414 C 85.532 79.493, 86.859 81.837, 83.481 84.333 C 80.729 86.367, 80.251 88, 82.406 88 C 83.320 88, 83.630 88.700, 83.290 90 C 82.702 92.248, 84.840 92.760, 86.767 90.833 C 87.657 89.943, 88.080 90.044, 88.545 91.255 C 89.077 92.644, 89.412 92.588, 91.188 90.812 C 92.910 89.090, 93.045 88.394, 92.073 86.261 C 91.442 84.875, 91.169 83.498, 91.467 83.200 C 92.426 82.241, 96.958 87.243, 98.173 90.601 C 98.821 92.393, 100.178 94.075, 101.189 94.339 C 102.200 94.603, 103.656 96.323, 104.426 98.160 C 106.381 102.825, 114.058 109.276, 115.701 107.633 C 115.992 107.342, 114.845 103.777, 113.152 99.711 C 111.459 95.645, 109.778 90.462, 109.415 88.194 C 108.969 85.406, 107.975 83.558, 106.346 82.491 C 105.018 81.621, 104.245 80.413, 104.623 79.802 C 105 79.191, 104.877 78.958, 104.348 79.285 C 103.820 79.611, 102.097 78.331, 100.520 76.439 C 98.943 74.548, 97.232 73, 96.718 73 C 95.622 73, 96.752 78.229, 98.017 79.010 C 100.316 80.431, 102.060 90, 100.020 90 C 98.723 90, 94.919 82.464, 94.535 79.131 C 94.289 77.003, 93.746 76.534, 91.695 76.677 C 88.932 76.871, 87.239 74.361, 88.967 72.633 C 90.416 71.184, 90.252 68.454, 88.637 67.114 C 87.527 66.193, 87.371 66.495, 87.798 68.741 M 184.500 72 C 184.160 72.550, 184.359 73, 184.941 73 C 185.523 73, 186 72.550, 186 72 C 186 71.450, 185.802 71, 185.559 71 C 185.316 71, 184.840 71.450, 184.500 72 M 145 72.755 C 145 73.305, 145.675 74.315, 146.500 75 C 147.337 75.694, 148 75.803, 148 75.245 C 148 74.695, 147.325 73.685, 146.500 73 C 145.663 72.306, 145 72.197, 145 72.755 M 69.667 75.667 C 69.300 76.033, 69 76.798, 69 77.367 C 69 77.993, 69.466 77.934, 70.183 77.217 C 70.834 76.566, 71.134 75.801, 70.850 75.517 C 70.566 75.233, 70.033 75.300, 69.667 75.667 M 195.017 77.250 C 195.027 77.388, 195.967 80.875, 197.107 85 C 198.247 89.125, 199.415 93.737, 199.703 95.250 C 200.178 97.741, 202 99.230, 202 97.127 C 202 95.158, 198.206 81.254, 197.111 79.207 C 196.130 77.375, 194.950 76.272, 195.017 77.250 M 85 87.559 C 85 88.966, 85.421 89.858, 85.936 89.539 C 87.049 88.852, 86.922 85, 85.787 85 C 85.354 85, 85 86.152, 85 87.559 M 89 89 C 89 90.100, 89.173 91, 89.383 91 C 89.594 91, 90.002 90.100, 90.290 89 C 90.577 87.900, 90.405 87, 89.906 87 C 89.408 87, 89 87.900, 89 89 M 80.442 90.750 C 83.016 97.622, 93.147 110.832, 99.087 115.062 C 104.043 118.591, 102.312 115.681, 95.444 108.937 C 91.839 105.397, 87.094 99.463, 84.900 95.750 C 81.093 89.307, 79.038 87.002, 80.442 90.750 M 86 94.250 C 86 95.148, 86.480 96.179, 87.067 96.541 C 88.782 97.601, 88.950 96.652, 87.418 94.557 C 86.232 92.935, 86 92.885, 86 94.250 M 128.128 101.938 C 128.716 103.624, 129.583 105.242, 130.055 105.534 C 130.527 105.825, 130.677 106.679, 130.388 107.431 C 130.100 108.183, 130.344 109.095, 130.932 109.458 C 131.519 109.821, 132 109.641, 132 109.059 C 132 108.477, 132.450 108, 133 108 C 133.550 108, 134 108.702, 134 109.559 C 134 110.416, 134.419 110.859, 134.932 110.542 C 135.444 110.226, 136.569 110.974, 137.432 112.206 L 139 114.445 139 112.199 C 139 110.034, 139.089 110.012, 141.500 111.592 C 142.875 112.493, 144 112.825, 144 112.331 C 144 110.995, 138.154 107.787, 137.009 108.494 C 136.467 108.830, 136.251 108.511, 136.529 107.785 C 136.807 107.060, 136.064 105.799, 134.878 104.983 C 133.692 104.168, 131.448 102.459, 129.891 101.186 L 127.060 98.872 128.128 101.938 M 167.580 101.296 C 165.995 103.666, 165.877 104.655, 166.805 107.796 C 168.369 113.086, 169.166 120, 168.212 120 C 167.765 120, 166.759 119.438, 165.977 118.750 C 165.194 118.063, 165.401 118.516, 166.438 119.757 C 167.474 120.998, 168.812 121.916, 169.411 121.797 C 171.078 121.466, 175 124.308, 175 125.848 C 175 126.672, 175.616 126.978, 176.552 126.618 C 177.406 126.291, 177.858 126.421, 177.557 126.907 C 177.257 127.394, 177.946 128.851, 179.089 130.146 C 180.907 132.206, 181.081 132.250, 180.480 130.500 C 177.575 122.054, 177.956 121.246, 182.563 126.086 C 184.178 127.783, 186.400 129.650, 187.500 130.233 C 188.600 130.817, 185.625 127.259, 180.890 122.327 C 174.722 115.903, 172.087 112.387, 171.600 109.930 C 171.226 108.043, 170.589 104.700, 170.185 102.500 L 169.450 98.500 167.580 101.296 M 202 102 C 202 103.100, 202.408 104, 202.906 104 C 203.405 104, 203.577 103.100, 203.290 102 C 203.002 100.900, 202.594 100, 202.383 100 C 202.173 100, 202 100.900, 202 102 M 140 113.571 C 140 113.886, 140.675 114.818, 141.500 115.643 C 143.128 117.271, 143.332 117.029, 142.393 114.582 C 141.823 113.095, 140 112.326, 140 113.571 M 184.491 116.982 C 185.277 118.502, 185.601 120.101, 185.210 120.534 C 184.820 120.966, 185.063 120.997, 185.750 120.601 C 186.438 120.206, 187 120.343, 187 120.907 C 187 122.247, 201.107 138.227, 201.735 137.598 C 202 137.333, 200.426 134.953, 198.237 132.308 C 196.048 129.664, 193.463 125.362, 192.493 122.750 C 191.522 120.138, 190.114 118, 189.364 118 C 188.614 118, 187.996 117.662, 187.992 117.250 C 187.988 116.838, 186.877 115.986, 185.523 115.358 C 183.082 114.227, 183.073 114.241, 184.491 116.982 M 173 118.559 C 173 119.416, 173.457 119.835, 174.016 119.490 C 174.575 119.144, 174.774 118.443, 174.457 117.931 C 173.600 116.544, 173 116.802, 173 118.559 M 170 128.313 C 170 129.035, 171.350 130.920, 173.001 132.501 C 174.651 134.082, 175.937 135.854, 175.858 136.438 C 175.780 137.022, 176.273 138.963, 176.955 140.750 C 177.975 143.422, 178.731 144, 181.205 144 C 183.561 144, 184.080 143.650, 183.596 142.389 C 183.153 141.236, 183.407 140.942, 184.489 141.357 C 186.255 142.035, 186.377 141.122, 185.002 137.505 C 184.453 136.061, 183.553 135.158, 183.002 135.499 C 182.451 135.839, 182 135.611, 182 134.992 C 182 134.294, 181.181 134.125, 179.849 134.548 C 178.195 135.073, 177.830 134.886, 178.271 133.737 C 178.980 131.888, 177.211 130, 174.769 130 C 173.761 130, 172.678 129.325, 172.362 128.500 C 171.652 126.652, 170 126.521, 170 128.313 M 138 136.382 C 138 137.207, 138.450 138.160, 139 138.500 C 139.550 138.840, 140 138.443, 140 137.618 C 140 136.793, 139.550 135.840, 139 135.500 C 138.450 135.160, 138 135.557, 138 136.382 M 172.500 136 C 172.840 136.550, 173.316 137, 173.559 137 C 173.802 137, 174 136.550, 174 136 C 174 135.450, 173.523 135, 172.941 135 C 172.359 135, 172.160 135.450, 172.500 136 M 131.601 137.836 C 131.347 138.248, 132.007 138.650, 133.069 138.730 C 135.366 138.903, 135.568 138.432, 133.532 137.651 C 132.725 137.341, 131.856 137.424, 131.601 137.836 " stroke="none" fill="#e2f0ff" fill-rule="evenodd"/>
</svg>